# xmcd
#
# Track frame offsets:
#	150
#	17074
#	33369
#
# Disc length: 645 seconds
#
# Revision: 0
# Processed by: cddbd v1.5.1PL2 Copyright (c) Steve Scherf et al.
# Submitted via: dBpowerAMP V4.0
#
DISCID=19028303
DTITLE=Pohlmann - Wenn jetzt Sommer wär - Maxi
DYEAR=2006
DGENRE=Acoustic
TTITLE0=Wenn jetzt Sommer wär
TTITLE1=Morgen schon
TTITLE2=Da bin ich
EXTD=
EXTT0=
EXTT1=
EXTT2=
PLAYORDER=
